<svg width="256" height="256" viewBox="0 0 256 256" fill="none" xmlns="http://www.w3.org/2000/svg">
<rect width="256" height="256" fill="#F7F8FA"/>
<rect width="256" height="256" fill="#F7F8FA"/>
<path fill-rule="evenodd" clip-rule="evenodd" d="M128.501 69C95.0914 69 68 96.0833 68 129.494C68 156.221 85.3352 178.897 109.374 186.896C112.398 187.456 113.508 185.584 113.508 183.986C113.508 182.543 113.452 177.778 113.425 172.723C96.5942 176.383 93.0426 165.586 93.0426 165.586C90.2904 158.594 86.3251 156.734 86.3251 156.734C80.8359 152.98 86.7388 153.057 86.7388 153.057C92.8141 153.483 96.0131 159.292 96.0131 159.292C101.409 168.539 110.166 165.865 113.619 164.32C114.162 160.41 115.73 157.74 117.46 156.23C104.022 154.701 89.8957 149.514 89.8957 126.334C89.8957 119.73 92.2591 114.333 96.1293 110.097C95.5011 108.572 93.4303 102.42 96.7154 94.0878C96.7154 94.0878 101.796 92.462 113.357 100.289C118.183 98.9483 123.359 98.2762 128.501 98.2531C133.642 98.2762 138.822 98.9483 143.657 100.289C155.204 92.462 160.278 94.0878 160.278 94.0878C163.571 102.42 161.499 108.572 160.871 110.097C164.75 114.333 167.097 119.73 167.097 126.334C167.097 149.569 152.944 154.685 139.472 156.182C141.642 158.06 143.576 161.741 143.576 167.385C143.576 175.479 143.505 181.993 143.505 183.986C143.505 185.596 144.594 187.482 147.661 186.888C171.687 178.88 189 156.212 189 129.494C189 96.0833 161.913 69 128.501 69Z" fill="#1B1817"/>
<path d="M90.9148 155.856C90.7816 156.157 90.3088 156.246 89.8781 156.04C89.4394 155.843 89.193 155.433 89.3353 155.132C89.4655 154.823 89.9392 154.737 90.3769 154.942C90.8166 155.141 91.067 155.554 90.9148 155.856Z" fill="#1B1817"/>
<path d="M93.3656 158.589C93.0771 158.856 92.5133 158.732 92.1306 158.309C91.735 157.887 91.6609 157.324 91.9534 157.052C92.2508 156.786 92.7977 156.911 93.1943 157.332C93.5899 157.758 93.6671 158.318 93.3656 158.589Z" fill="#1B1817"/>
<path d="M95.7492 162.073C95.3786 162.33 94.7726 162.089 94.398 161.551C94.0274 161.013 94.0275 160.368 94.4061 160.109C94.7817 159.851 95.3786 160.084 95.7582 160.617C96.1278 161.164 96.1278 161.809 95.7492 162.073Z" fill="#1B1817"/>
<path d="M99.0185 165.439C98.687 165.804 97.9809 165.706 97.4641 165.207C96.9352 164.719 96.788 164.027 97.1205 163.662C97.4561 163.295 98.1662 163.398 98.687 163.893C99.2118 164.38 99.3721 165.077 99.0185 165.439Z" fill="#1B1817"/>
<path d="M103.526 167.393C103.38 167.867 102.7 168.082 102.015 167.881C101.331 167.673 100.883 167.119 101.021 166.64C101.163 166.163 101.846 165.939 102.537 166.154C103.22 166.36 103.668 166.911 103.526 167.393Z" fill="#1B1817"/>
<path d="M108.478 167.756C108.495 168.255 107.914 168.668 107.195 168.677C106.472 168.693 105.887 168.29 105.879 167.799C105.879 167.295 106.447 166.885 107.17 166.873C107.889 166.859 108.478 167.26 108.478 167.756Z" fill="#1B1817"/>
<path d="M113.086 166.971C113.172 167.458 112.672 167.958 111.958 168.091C111.256 168.219 110.606 167.919 110.517 167.436C110.429 166.937 110.938 166.438 111.639 166.308C112.354 166.184 112.994 166.477 113.086 166.971Z" fill="#1B1817"/>
</svg>
